# Inverted open cone (Tornado) for Echo element
v 0.500000 0.500000 0.000000
v 0.433013 0.500000 0.250000
v 0.250000 0.500000 0.433013
v 0.000000 0.500000 0.500000
v -0.250000 0.500000 0.433013
v -0.433013 0.500000 0.250000
v -0.500000 0.500000 0.000000
v -0.433013 0.500000 -0.250000
v -0.250000 0.500000 -0.433013
v -0.000000 0.500000 -0.500000
v 0.250000 0.500000 -0.433013
v 0.433013 0.500000 -0.250000
v 0.000000 -0.500000 0.000000
f 13 2 1
f 13 3 2
f 13 4 3
f 13 5 4
f 13 6 5
f 13 7 6
f 13 8 7
f 13 9 8
f 13 10 9
f 13 11 10
f 13 12 11
f 13 1 12
